<?xml version="1.0" encoding="utf-8"?>
<!-- Svg Vector Icons : http://www.onlinewebfonts.com/icon -->
<!DOCTYPE svg PUBLIC "-//W3C//DTD SVG 1.1//EN" "http://www.w3.org/Graphics/SVG/1.1/DTD/svg11.dtd">
<svg version="1.1" xmlns="http://www.w3.org/2000/svg" xmlns:xlink="http://www.w3.org/1999/xlink" x="0px" y="0px" viewBox="0 0 1000 1000" enable-background="new 0 0 1000 1000" xml:space="preserve">
<metadata> Svg Vector Icons : http://www.onlinewebfonts.com/icon </metadata>
<g><path d="M861.1,835.3h-77.4v77.4c0,42.7-34.6,77.4-77.4,77.4H138.9c-42.7,0-77.4-34.6-77.4-77.4V242.1c0-42.7,34.6-77.4,77.4-77.4h77.4V87.4c0-42.7,34.6-77.4,77.4-77.4h567.4c42.7,0,77.4,34.6,77.4,77.4v670.5C938.4,800.6,903.8,835.3,861.1,835.3z M164.7,216.3c-28.5,0-51.6,23.1-51.6,51.6v618.9c0,28.5,23.1,51.6,51.6,51.6h515.8c28.5,0,51.6-23.1,51.6-51.6V267.9c0-28.5-23.1-51.6-51.6-51.6H164.7z M886.8,113.2c0-28.5-23.1-51.6-51.6-51.6H319.5c-28.5,0-51.6,23.1-51.6,51.6v51.6h438.4c42.7,0,77.4,34.6,77.4,77.4v541.6h51.6c28.5,0,51.6-23.1,51.6-51.6V113.2z M603.2,835.3H242.1c-14.3,0-25.8-11.5-25.8-25.8c0-14.2,11.5-25.8,25.8-25.8h361.1c14.3,0,25.8,11.6,25.8,25.8C628.9,823.7,617.4,835.3,603.2,835.3z M603.2,680.5H242.1c-14.3,0-25.8-11.5-25.8-25.8c0-14.2,11.5-25.8,25.8-25.8h361.1c14.3,0,25.8,11.6,25.8,25.8C628.9,669,617.4,680.5,603.2,680.5z M603.2,525.8H242.1c-14.3,0-25.8-11.5-25.8-25.8c0-14.2,11.5-25.8,25.8-25.8h361.1c14.3,0,25.8,11.6,25.8,25.8C628.9,514.3,617.4,525.8,603.2,525.8z M603.2,371.1H242.1c-14.3,0-25.8-11.5-25.8-25.8c0-14.3,11.5-25.8,25.8-25.8h361.1c14.3,0,25.8,11.5,25.8,25.8C628.9,359.5,617.4,371.1,603.2,371.1z"/></g>
</svg>